<svg id="Layer_3" height="512" viewBox="0 0 64 64" width="512" xmlns="http://www.w3.org/2000/svg" data-name="Layer 3"><path d="m62 11h-20.885c-3.304-5.888-10.615-10-19.115-10-11.58 0-21 7.626-21 17 0 6.107 4.011 11.456 10 14.454v29.546a1 1 0 0 0 1 1h50a1 1 0 0 0 1-1v-50a1 1 0 0 0 -1-1zm-17 2v17a1 1 0 0 1 -1 1h-6.477l-.279-1.3a15.326 15.326 0 0 0 5.756-11.7 13.983 13.983 0 0 0 -.93-5zm-42 5c0-8.271 8.523-15 19-15s19 6.729 19 15a13.509 13.509 0 0 1 -5.485 10.535 1 1 0 0 0 -.354.99l1.345 6.275-5.958-3.97a1 1 0 0 0 -.555-.168 1.017 1.017 0 0 0 -.33.056 23.147 23.147 0 0 1 -7.663 1.282c-10.477 0-19-6.729-19-15zm58 43h-48v-27.664a24.955 24.955 0 0 0 9 1.664 25.222 25.222 0 0 0 7.848-1.233l7.6 5.065a1 1 0 0 0 1.533-1.042l-1.03-4.79h6.049a3 3 0 0 0 3-3v-17h14z"/><path d="m42 51h2v8h-2z"/><path d="m45 51h2v8h-2z"/><path d="m48 51h2v8h-2z"/><path d="m51 51h2v8h-2z"/><path d="m54 51h2v8h-2z"/><path d="m57 51h2v8h-2z"/><path d="m10 10h2v16h-2z"/><path d="m13 10h2v12h-2z"/><path d="m16 10h2v13h-2z"/><path d="m19 10h2v13h-2z"/><path d="m22 10h2v13h-2z"/><path d="m26 10h2v13h-2z"/><path d="m29 10h2v12h-2z"/><path d="m13 23h2v3h-2z"/><path d="m32 10h2v16h-2z"/><path d="m29 23h2v3h-2z"/><path d="m16 24h12v2h-12z"/><path d="m34 47h-18a1 1 0 0 0 -1 1v10a1 1 0 0 0 1 1h18a1 1 0 0 0 1-1v-10a1 1 0 0 0 -1-1zm-1 10h-16v-8h16z"/></svg>